<svg xmlns="http://www.w3.org/2000/svg" xmlns:xlink="http://www.w3.org/1999/xlink" xmlns:lucid="lucid" width="466.67" height="301.96"><g transform="translate(0 0)" lucid:page-tab-id="0_0"><path d="M290.98 10.98h160v200h-160z" stroke="#000" stroke-width="2" fill="#fff"/><use xlink:href="#a" transform="matrix(1,0,0,1,295.98039215686276,15.980392156862749) translate(20.074999999999996 14.4)"/><use xlink:href="#b" transform="matrix(1,0,0,1,295.98039215686276,15.980392156862749) translate(83.025 14.4)"/><path d="M10.98 90.98h160v200h-160z" stroke="#000" stroke-width="2" fill="#fff"/><use xlink:href="#c" transform="matrix(1,0,0,1,15.980392156862749,95.98039215686276) translate(39.775 14.4)"/><path d="M250.98 50.98h160v200h-160z" stroke="#000" stroke-width="2" fill="#fff"/><use xlink:href="#d" transform="matrix(1,0,0,1,255.98039215686276,55.98039215686276) translate(19.375 14.4)"/><use xlink:href="#e" transform="matrix(1,0,0,1,255.98039215686276,55.98039215686276) translate(90.325 14.4)"/><path d="M210.98 90.98h160v200h-160z" stroke="#000" stroke-width="2" fill="#fff"/><use xlink:href="#f" transform="matrix(1,0,0,1,215.98039215686276,95.98039215686276) translate(12.600000000000001 14.4)"/><use xlink:href="#g" transform="matrix(1,0,0,1,215.98039215686276,95.98039215686276) translate(90.44999999999999 14.4)"/><path d="M30.98 170.98h320v80h-320z" fill="#fff"/><path d="M40.86 170.98h3.95m7.9 0h3.96m7.9 0h3.95m7.9 0h3.96m7.9 0h3.95m7.92 0h3.95m7.9 0h3.95m7.9 0h3.95m7.9 0h3.95m7.9 0h3.95m7.9 0h3.96m7.9 0h3.95m7.9 0h3.95m7.9 0h3.95m7.9 0h3.95m7.9 0h3.96m7.9 0h3.94m7.9 0h3.95m7.9 0h3.94m7.9 0H270m7.9 0h3.94m7.9 0h3.96m7.9 0h3.95m7.9 0h3.95m7.9 0h3.95m7.9 0h3.95m7.9 0H351v1.9m0 7.62v3.8m0 7.63v3.8m0 7.63v3.8m0 7.63v3.8m0 7.62v3.8m0 7.63v3.8m0 7.63v1.9H349m-7.9 0h-3.95m-7.9 0h-3.95m-7.9 0h-3.95m-7.9 0h-3.95m-7.9 0h-3.95m-7.9 0h-3.96m-7.9 0h-3.96m-7.9 0h-3.95m-7.9 0h-3.96m-7.9 0h-3.95m-7.9 0h-3.97m-7.9 0h-3.95m-7.9 0h-3.95m-7.9 0h-3.95m-7.9 0h-3.95m-7.9 0h-3.95m-7.9 0h-3.96m-7.9 0h-3.95m-7.9 0h-3.95m-7.9 0h-3.95m-7.9 0h-3.95m-7.9 0h-3.96m-7.9 0H76.4m-7.9 0h-3.94m-7.9 0H52.7m-7.9 0h-3.94m-7.9 0h-1.98v-1.9m0-7.62v-3.8m0-7.63v-3.8m0-7.63v-3.8m0-7.63v-3.8m0-7.63v-3.8m0-7.63v-3.8m0-7.6v-1.92h1.98" stroke="#000" stroke-width="2" fill="none"/><g><use xlink:href="#h" transform="matrix(1,0,0,1,35.98039215686279,175.98039215686276) translate(110.07499999999999 38.6)"/><use xlink:href="#i" transform="matrix(1,0,0,1,35.98039215686279,175.98039215686276) translate(143.075 38.6)"/></g><defs><path d="M143 4C61 4 22-44 18-125c-5-107 100-154 193-111 17 8 29 25 37 43l-32 9c-13-25-37-40-76-40-61 0-88 39-88 99 0 61 29 100 91 101 35 0 62-11 79-27v-45h-74v-28h105v86C228-13 192 4 143 4" id="j"/><path d="M100-194c62-1 85 37 85 99 1 63-27 99-86 99S16-35 15-95c0-66 28-99 85-99zM99-20c44 1 53-31 53-75 0-43-8-75-51-75s-53 32-53 75 10 74 51 75" id="k"/><path d="M177-190C167-65 218 103 67 71c-23-6-38-20-44-43l32-5c15 47 100 32 89-28v-30C133-14 115 1 83 1 29 1 15-40 15-95c0-56 16-97 71-98 29-1 48 16 59 35 1-10 0-23 2-32h30zM94-22c36 0 50-32 50-73 0-42-14-75-50-75-39 0-46 34-46 75s6 73 46 73" id="l"/><path d="M24 0v-261h32V0H24" id="m"/><path d="M100-194c63 0 86 42 84 106H49c0 40 14 67 53 68 26 1 43-12 49-29l28 8c-11 28-37 45-77 45C44 4 14-33 15-96c1-61 26-98 85-98zm52 81c6-60-76-77-97-28-3 7-6 17-6 28h103" id="n"/><g id="a"><use transform="matrix(0.05,0,0,0.05,0,0)" xlink:href="#j"/><use transform="matrix(0.05,0,0,0.05,14,0)" xlink:href="#k"/><use transform="matrix(0.05,0,0,0.05,24,0)" xlink:href="#k"/><use transform="matrix(0.05,0,0,0.05,34,0)" xlink:href="#l"/><use transform="matrix(0.05,0,0,0.05,44,0)" xlink:href="#m"/><use transform="matrix(0.05,0,0,0.05,47.95,0)" xlink:href="#n"/></g><path d="M212-179c-10-28-35-45-73-45-59 0-87 40-87 99 0 60 29 101 89 101 43 0 62-24 78-52l27 14C228-24 195 4 139 4 59 4 22-46 18-125c-6-104 99-153 187-111 19 9 31 26 39 46" id="o"/><path d="M84 4C-5 8 30-112 23-190h32v120c0 31 7 50 39 49 72-2 45-101 50-169h31l1 190h-30c-1-10 1-25-2-33-11 22-28 36-60 37" id="p"/><path d="M85-194c31 0 48 13 60 33l-1-100h32l1 261h-30c-2-10 0-23-3-31C134-8 116 4 85 4 32 4 16-35 15-94c0-66 23-100 70-100zm9 24c-40 0-46 34-46 75 0 40 6 74 45 74 42 0 51-32 51-76 0-42-9-74-50-73" id="q"/><g id="b"><use transform="matrix(0.05,0,0,0.05,0,0)" xlink:href="#o"/><use transform="matrix(0.05,0,0,0.05,12.950000000000001,0)" xlink:href="#m"/><use transform="matrix(0.05,0,0,0.05,16.900000000000002,0)" xlink:href="#k"/><use transform="matrix(0.05,0,0,0.05,26.900000000000002,0)" xlink:href="#p"/><use transform="matrix(0.05,0,0,0.05,36.900000000000006,0)" xlink:href="#q"/></g><path d="M190 0L58-211 59 0H30v-248h39L202-35l-2-213h31V0h-41" id="r"/><path d="M127-220V0H93v-220H8v-28h204v28h-85" id="s"/><path d="M205 0l-28-72H64L36 0H1l101-248h38L239 0h-34zm-38-99l-47-123c-12 45-31 82-46 123h93" id="t"/><path d="M233-177c-1 41-23 64-60 70L243 0h-38l-65-103H63V0H30v-248c88 3 205-21 203 71zM63-129c60-2 137 13 137-47 0-61-80-42-137-45v92" id="u"/><g id="c"><use transform="matrix(0.05,0,0,0.05,0,0)" xlink:href="#r"/><use transform="matrix(0.05,0,0,0.05,12.950000000000001,0)" xlink:href="#n"/><use transform="matrix(0.05,0,0,0.05,22.950000000000003,0)" xlink:href="#o"/><use transform="matrix(0.05,0,0,0.05,35.900000000000006,0)" xlink:href="#s"/><use transform="matrix(0.05,0,0,0.05,45.50000000000001,0)" xlink:href="#t"/><use transform="matrix(0.05,0,0,0.05,57.5,0)" xlink:href="#u"/></g><path d="M210-169c-67 3-38 105-44 169h-31v-121c0-29-5-50-35-48C34-165 62-65 56 0H25l-1-190h30c1 10-1 24 2 32 10-44 99-50 107 0 11-21 27-35 58-36 85-2 47 119 55 194h-31v-121c0-29-5-49-35-48" id="v"/><path d="M141-36C126-15 110 5 73 4 37 3 15-17 15-53c-1-64 63-63 125-63 3-35-9-54-41-54-24 1-41 7-42 31l-33-3c5-37 33-52 76-52 45 0 72 20 72 64v82c-1 20 7 32 28 27v20c-31 9-61-2-59-35zM48-53c0 20 12 33 32 33 41-3 63-29 60-74-43 2-92-5-92 41" id="w"/><path d="M9 0v-24l116-142H16v-24h144v24L44-24h123V0H9" id="x"/><path d="M117-194c89-4 53 116 60 194h-32v-121c0-31-8-49-39-48C34-167 62-67 57 0H25l-1-190h30c1 10-1 24 2 32 11-22 29-35 61-36" id="y"/><g id="d"><use transform="matrix(0.05,0,0,0.05,0,0)" xlink:href="#t"/><use transform="matrix(0.05,0,0,0.05,12,0)" xlink:href="#v"/><use transform="matrix(0.05,0,0,0.05,26.950000000000003,0)" xlink:href="#w"/><use transform="matrix(0.05,0,0,0.05,36.95,0)" xlink:href="#x"/><use transform="matrix(0.05,0,0,0.05,45.95,0)" xlink:href="#k"/><use transform="matrix(0.05,0,0,0.05,55.95,0)" xlink:href="#y"/></g><path d="M266 0h-40l-56-210L115 0H75L2-248h35L96-30l15-64 43-154h32l59 218 59-218h35" id="z"/><path d="M185-189c-5-48-123-54-124 2 14 75 158 14 163 119 3 78-121 87-175 55-17-10-28-26-33-46l33-7c5 56 141 63 141-1 0-78-155-14-162-118-5-82 145-84 179-34 5 7 8 16 11 25" id="A"/><g id="e"><use transform="matrix(0.05,0,0,0.05,0,0)" xlink:href="#t"/><use transform="matrix(0.05,0,0,0.05,11.35,0)" xlink:href="#z"/><use transform="matrix(0.05,0,0,0.05,28.299999999999997,0)" xlink:href="#A"/></g><path d="M240 0l2-218c-23 76-54 145-80 218h-23L58-218 59 0H30v-248h44l77 211c21-75 51-140 76-211h43V0h-30" id="B"/><path d="M24-231v-30h32v30H24zM24 0v-190h32V0H24" id="C"/><path d="M96-169c-40 0-48 33-48 73s9 75 48 75c24 0 41-14 43-38l32 2c-6 37-31 61-74 61-59 0-76-41-82-99-10-93 101-131 147-64 4 7 5 14 7 22l-32 3c-4-21-16-35-41-35" id="D"/><path d="M114-163C36-179 61-72 57 0H25l-1-190h30c1 12-1 29 2 39 6-27 23-49 58-41v29" id="E"/><path d="M135-143c-3-34-86-38-87 0 15 53 115 12 119 90S17 21 10-45l28-5c4 36 97 45 98 0-10-56-113-15-118-90-4-57 82-63 122-42 12 7 21 19 24 35" id="F"/><path d="M101-234c-31-9-42 10-38 44h38v23H63V0H32v-167H5v-23h27c-7-52 17-82 69-68v24" id="G"/><path d="M59-47c-2 24 18 29 38 22v24C64 9 27 4 27-40v-127H5v-23h24l9-43h21v43h35v23H59v120" id="H"/><g id="f"><use transform="matrix(0.05,0,0,0.05,0,0)" xlink:href="#B"/><use transform="matrix(0.05,0,0,0.05,14.950000000000001,0)" xlink:href="#C"/><use transform="matrix(0.05,0,0,0.05,18.900000000000002,0)" xlink:href="#D"/><use transform="matrix(0.05,0,0,0.05,27.900000000000002,0)" xlink:href="#E"/><use transform="matrix(0.05,0,0,0.05,33.85,0)" xlink:href="#k"/><use transform="matrix(0.05,0,0,0.05,43.85,0)" xlink:href="#F"/><use transform="matrix(0.05,0,0,0.05,52.85,0)" xlink:href="#k"/><use transform="matrix(0.05,0,0,0.05,62.85,0)" xlink:href="#G"/><use transform="matrix(0.05,0,0,0.05,67.85,0)" xlink:href="#H"/></g><g id="g"><use transform="matrix(0.05,0,0,0.05,0,0)" xlink:href="#t"/><use transform="matrix(0.05,0,0,0.05,12,0)" xlink:href="#x"/><use transform="matrix(0.05,0,0,0.05,21,0)" xlink:href="#p"/><use transform="matrix(0.05,0,0,0.05,31,0)" xlink:href="#E"/><use transform="matrix(0.05,0,0,0.05,36.95,0)" xlink:href="#n"/></g><path d="M143 0L79-87 56-68V0H24v-261h32v163l83-92h37l-77 82L181 0h-38" id="I"/><path d="M134-131c28 9 52 24 51 62-1 50-34 73-85 73S17-19 16-69c0-36 21-54 49-61-75-25-45-126 34-121 46 3 78 18 79 63 0 33-17 51-44 57zm-34-11c31 1 46-15 46-44 0-28-17-43-47-42-29 0-46 13-45 42 1 28 16 44 46 44zm1 122c35 0 51-18 51-52 0-30-18-46-53-46-33 0-51 17-51 47 0 34 19 51 53 51" id="J"/><g id="h"><use transform="matrix(0.05,0,0,0.05,0,0)" xlink:href="#I"/><use transform="matrix(0.05,0,0,0.05,9,0)" xlink:href="#J"/><use transform="matrix(0.05,0,0,0.05,19,0)" xlink:href="#F"/></g><g id="i"><use transform="matrix(0.05,0,0,0.05,0,0)" xlink:href="#o"/><use transform="matrix(0.05,0,0,0.05,12.950000000000001,0)" xlink:href="#m"/><use transform="matrix(0.05,0,0,0.05,16.900000000000002,0)" xlink:href="#p"/><use transform="matrix(0.05,0,0,0.05,26.900000000000002,0)" xlink:href="#F"/><use transform="matrix(0.05,0,0,0.05,35.900000000000006,0)" xlink:href="#H"/><use transform="matrix(0.05,0,0,0.05,40.900000000000006,0)" xlink:href="#n"/><use transform="matrix(0.05,0,0,0.05,50.900000000000006,0)" xlink:href="#E"/></g></defs></g></svg>